%TF.GenerationSoftware,Altium Limited,Altium Designer,21.5.1 (32)*%
G04 Layer_Physical_Order=1*
G04 Layer_Color=255*
%FSLAX45Y45*%
%MOMM*%
%TF.SameCoordinates,FC71FE03-DF86-4C59-A4B4-F3CCB041565B*%
%TF.FilePolarity,Positive*%
%TF.FileFunction,Copper,L1,Top,Signal*%
%TF.Part,Single*%
G01*
G75*
%TA.AperFunction,Conductor*%
%ADD10C,0.75000*%
%ADD11C,0.25400*%
%TA.AperFunction,NonConductor*%
%ADD12C,0.25400*%
%TA.AperFunction,ComponentPad*%
%ADD13C,1.00000*%
%ADD14C,2.80000*%
%ADD15C,1.52400*%
%ADD16R,1.50000X1.50000*%
%ADD17C,1.50000*%
%ADD18R,1.50000X1.50000*%
%ADD19R,1.56000X1.56000*%
%ADD20C,1.56000*%
%ADD21C,1.40000*%
D10*
X6769100Y4127500D02*
X9588500D01*
X10090196Y4629196D01*
X6502400Y4394200D02*
X6769100Y4127500D01*
X10090196Y4629196D02*
Y4725596D01*
X10101700Y4737100D01*
X7378700Y7086600D02*
Y8496905D01*
X7734300Y6731000D02*
X9047600D01*
X7378700Y7086600D02*
X7734300Y6731000D01*
X9047600D02*
X9593700Y7277100D01*
X7378700Y8496905D02*
X7912100Y9030305D01*
X7480300Y10248900D02*
X7912100Y9817100D01*
Y9030305D02*
Y9817100D01*
X12636500Y6159500D02*
Y10274300D01*
X11861800Y5384800D02*
X12636500Y6159500D01*
X9733400Y5384800D02*
X11861800D01*
X10871200Y10611366D02*
X10902950D01*
X12299434D01*
X9085700Y4737100D02*
X9733400Y5384800D01*
X16002000Y3124200D02*
Y10871200D01*
X15862300Y2984500D02*
X16002000Y3124200D01*
X15887700Y10985500D02*
X16002000Y10871200D01*
X10210800D02*
X10464800Y11125200D01*
X9486900Y10871200D02*
X10210800D01*
X10483850Y11106150D02*
X10604500Y10985500D01*
X13187700D01*
X9296400Y10871200D02*
X9486900D01*
X10464800Y11125200D02*
X10483850Y11106150D01*
X10464800Y11125200D02*
Y11506200D01*
X8699500Y7663300D02*
X9085700Y7277100D01*
X8699500Y10274300D02*
X9296400Y10871200D01*
X8699500Y7663300D02*
Y10274300D01*
X7594600Y10871200D02*
X9296400D01*
X7480300Y10756900D02*
X7594600Y10871200D01*
X7175500Y11201400D02*
X7480300Y11506200D01*
X10210800D01*
X7175500Y10439400D02*
Y11201400D01*
X6502400Y11252200D02*
X7467600Y12217400D01*
X6502400Y4394200D02*
Y11252200D01*
X10140200Y9981489D02*
X10160263Y9961426D01*
X9760466Y10363200D02*
X10140200Y9983466D01*
Y9981489D02*
Y9983466D01*
X9486900Y10363200D02*
X9760466D01*
X10160000Y9156700D02*
Y9963666D01*
X7023100Y6197600D02*
Y10287000D01*
Y5275700D02*
Y6197600D01*
X9486900Y10617200D02*
X10871200D01*
X10874117Y10614283D02*
X10902950Y10585450D01*
X10871200Y10617200D02*
X10874117Y10614283D01*
X10160000Y9156700D02*
X10617200Y8699500D01*
X12103100D01*
X12389534Y8413066D01*
Y7106334D02*
Y8413066D01*
X11480800Y6197600D02*
X12389534Y7106334D01*
X7023100Y6197600D02*
X11480800D01*
X7467600Y12217400D02*
X10261600D01*
X10718800Y11760200D01*
X12299434Y10611366D02*
X12636500Y10274300D01*
X10902950Y10585450D02*
X11188700Y10299700D01*
Y9931400D02*
Y10299700D01*
X13182600Y3492500D02*
Y3962400D01*
X13169901Y3479800D02*
X13182600Y3492500D01*
Y3962400D02*
X13525500Y4305300D01*
Y10647700D01*
X13187700Y10985500D02*
X13525500Y10647700D01*
X13411200Y2984500D02*
X15862300D01*
X12915900Y3479800D02*
X13411200Y2984500D01*
X12133700Y4262000D02*
X12915900Y3479800D01*
X12133700Y4262000D02*
Y4737100D01*
X13824001Y3733800D02*
Y5624600D01*
X14094780Y5895380D01*
X13824001Y3733800D02*
X14166901Y3390900D01*
X14844096Y5890597D02*
X14989996D01*
X14389101Y5435600D02*
X14844096Y5890597D01*
X14989996D02*
X14994780Y5895380D01*
X14389101Y3619500D02*
X14617700Y3390900D01*
X14389101Y3619500D02*
Y5435600D01*
X7023100Y5275700D02*
X7561700Y4737100D01*
X7023100Y10287000D02*
X7175500Y10439400D01*
X7239000Y10502900D01*
X10718800Y11506200D02*
Y11760200D01*
X7239000Y10502900D02*
X7480300D01*
D11*
X14166901Y3390900D02*
Y3459794D01*
D12*
X9753600Y3431481D02*
Y3583832D01*
X9829775D01*
X9855167Y3558440D01*
Y3507656D01*
X9829775Y3482264D01*
X9753600D01*
X9804383D02*
X9855167Y3431481D01*
X9931343D02*
X9982126D01*
X10007518Y3456873D01*
Y3507656D01*
X9982126Y3533048D01*
X9931343D01*
X9905951Y3507656D01*
Y3456873D01*
X9931343Y3431481D01*
X10058301Y3583832D02*
Y3431481D01*
X10134477D01*
X10159869Y3456873D01*
Y3482264D01*
Y3507656D01*
X10134477Y3533048D01*
X10058301D01*
X10286828Y3431481D02*
X10236044D01*
X10210652Y3456873D01*
Y3507656D01*
X10236044Y3533048D01*
X10286828D01*
X10312219Y3507656D01*
Y3482264D01*
X10210652D01*
X10363003Y3533048D02*
Y3431481D01*
Y3482264D01*
X10388395Y3507656D01*
X10413786Y3533048D01*
X10439178D01*
X10540745Y3558440D02*
Y3533048D01*
X10515354D01*
X10566137D01*
X10540745D01*
Y3456873D01*
X10566137Y3431481D01*
X10667704D02*
X10718488D01*
X10743880Y3456873D01*
Y3507656D01*
X10718488Y3533048D01*
X10667704D01*
X10642312Y3507656D01*
Y3456873D01*
X10667704Y3431481D01*
X10947014D02*
Y3583832D01*
X11023189D01*
X11048581Y3558440D01*
Y3507656D01*
X11023189Y3482264D01*
X10947014D01*
X11099365Y3431481D02*
Y3456873D01*
X11124757D01*
Y3431481D01*
X11099365D01*
X9855167Y3340051D02*
X9804383D01*
X9829775D01*
Y3213092D01*
X9804383Y3187700D01*
X9778992D01*
X9753600Y3213092D01*
X9982126Y3187700D02*
X9931343D01*
X9905951Y3213092D01*
Y3263875D01*
X9931343Y3289267D01*
X9982126D01*
X10007518Y3263875D01*
Y3238483D01*
X9905951D01*
X10058301Y3187700D02*
Y3289267D01*
X10134477D01*
X10159869Y3263875D01*
Y3187700D01*
X10210652D02*
Y3289267D01*
X10286828D01*
X10312219Y3263875D01*
Y3187700D01*
X10363003D02*
X10413786D01*
X10388395D01*
Y3289267D01*
X10363003D01*
X10515354Y3187700D02*
Y3314659D01*
Y3263875D01*
X10489962D01*
X10540745D01*
X10515354D01*
Y3314659D01*
X10540745Y3340051D01*
X10693096Y3187700D02*
X10642312D01*
X10616921Y3213092D01*
Y3263875D01*
X10642312Y3289267D01*
X10693096D01*
X10718488Y3263875D01*
Y3238483D01*
X10616921D01*
X10769271Y3289267D02*
Y3187700D01*
Y3238483D01*
X10794663Y3263875D01*
X10820055Y3289267D01*
X10845447D01*
X11073973Y3187700D02*
Y3340051D01*
X11150148D01*
X11175540Y3314659D01*
Y3263875D01*
X11150148Y3238483D01*
X11073973D01*
X11124756D02*
X11175540Y3187700D01*
X11226323D02*
Y3213092D01*
X11251715D01*
Y3187700D01*
X11226323D01*
X6908767Y3507623D02*
X6883375Y3533015D01*
X6832592D01*
X6807200Y3507623D01*
Y3482232D01*
X6832592Y3456840D01*
X6883375D01*
X6908767Y3431448D01*
Y3406056D01*
X6883375Y3380664D01*
X6832592D01*
X6807200Y3406056D01*
X7035726Y3380664D02*
X6984943D01*
X6959551Y3406056D01*
Y3456840D01*
X6984943Y3482232D01*
X7035726D01*
X7061118Y3456840D01*
Y3431448D01*
X6959551D01*
X7111901Y3533015D02*
Y3380664D01*
X7188077D01*
X7213469Y3406056D01*
Y3431448D01*
Y3456840D01*
X7188077Y3482232D01*
X7111901D01*
X7289644D02*
X7340428D01*
X7365819Y3456840D01*
Y3380664D01*
X7289644D01*
X7264252Y3406056D01*
X7289644Y3431448D01*
X7365819D01*
X7416603Y3380664D02*
X7492778D01*
X7518170Y3406056D01*
X7492778Y3431448D01*
X7441995D01*
X7416603Y3456840D01*
X7441995Y3482232D01*
X7518170D01*
X7594345Y3507623D02*
Y3482232D01*
X7568954D01*
X7619737D01*
X7594345D01*
Y3406056D01*
X7619737Y3380664D01*
X7695912D02*
X7746696D01*
X7721304D01*
Y3482232D01*
X7695912D01*
X7848263D02*
X7899047D01*
X7924439Y3456840D01*
Y3380664D01*
X7848263D01*
X7822871Y3406056D01*
X7848263Y3431448D01*
X7924439D01*
X7975222Y3380664D02*
Y3482232D01*
X8051397D01*
X8076789Y3456840D01*
Y3380664D01*
X8381491Y3507623D02*
X8356099Y3533015D01*
X8305315D01*
X8279923Y3507623D01*
Y3406056D01*
X8305315Y3380664D01*
X8356099D01*
X8381491Y3406056D01*
X8432274Y3380664D02*
Y3406056D01*
X8457666D01*
Y3380664D01*
X8432274D01*
X6908767Y3263842D02*
X6883375Y3289234D01*
X6832592D01*
X6807200Y3263842D01*
Y3162275D01*
X6832592Y3136883D01*
X6883375D01*
X6908767Y3162275D01*
X6959551Y3289234D02*
Y3136883D01*
Y3213059D01*
X6984943Y3238451D01*
X7035726D01*
X7061118Y3213059D01*
Y3136883D01*
X7137293Y3238451D02*
X7188077D01*
X7213469Y3213059D01*
Y3136883D01*
X7137293D01*
X7111901Y3162275D01*
X7137293Y3187667D01*
X7213469D01*
X7264252Y3238451D02*
Y3136883D01*
Y3187667D01*
X7289644Y3213059D01*
X7315036Y3238451D01*
X7340428D01*
X7416603Y3136883D02*
X7467386D01*
X7441995D01*
Y3289234D01*
X7416603D01*
X7543562Y3238451D02*
Y3162275D01*
X7568954Y3136883D01*
X7645129D01*
Y3111492D01*
X7619737Y3086100D01*
X7594345D01*
X7645129Y3136883D02*
Y3238451D01*
X7848263Y3136883D02*
Y3289234D01*
X7899047Y3238451D01*
X7949830Y3289234D01*
Y3136883D01*
X8000614D02*
Y3162275D01*
X8026006D01*
Y3136883D01*
X8000614D01*
X11620467Y12039551D02*
X11518900D01*
Y11887200D01*
X11620467D01*
X11518900Y11963375D02*
X11569683D01*
X11671251Y11887200D02*
Y12039551D01*
X11722034Y11988767D01*
X11772818Y12039551D01*
Y11887200D01*
X11823601Y12039551D02*
Y11887200D01*
X11899777D01*
X11925169Y11912592D01*
Y11937983D01*
X11899777Y11963375D01*
X11823601D01*
X11899777D01*
X11925169Y11988767D01*
Y12014159D01*
X11899777Y12039551D01*
X11823601D01*
X12077519D02*
X11975952D01*
Y11887200D01*
X12077519D01*
X11975952Y11963375D02*
X12026736D01*
X12128303Y12039551D02*
Y11887200D01*
X12204478D01*
X12229870Y11912592D01*
Y12014159D01*
X12204478Y12039551D01*
X12128303D01*
X12280654D02*
Y11887200D01*
X12356829D01*
X12382221Y11912592D01*
Y12014159D01*
X12356829Y12039551D01*
X12280654D01*
X12534572D02*
X12433004D01*
Y11887200D01*
X12534572D01*
X12433004Y11963375D02*
X12483788D01*
X12585355Y12039551D02*
Y11887200D01*
X12661530D01*
X12686922Y11912592D01*
Y12014159D01*
X12661530Y12039551D01*
X12585355D01*
X12890057Y11912592D02*
X12915448Y11887200D01*
X12966232D01*
X12991624Y11912592D01*
Y12014159D01*
X12966232Y12039551D01*
X12915448D01*
X12890057Y12014159D01*
Y11988767D01*
X12915448Y11963375D01*
X12991624D01*
X13042407Y11887200D02*
Y11988767D01*
X13093192Y12039551D01*
X13143974Y11988767D01*
Y11887200D01*
Y11963375D01*
X13042407D01*
X13448676Y11887200D02*
X13347108D01*
X13448676Y11988767D01*
Y12014159D01*
X13423283Y12039551D01*
X13372501D01*
X13347108Y12014159D01*
X13499458D02*
X13524850Y12039551D01*
X13575635D01*
X13601027Y12014159D01*
Y11912592D01*
X13575635Y11887200D01*
X13524850D01*
X13499458Y11912592D01*
Y12014159D01*
X13753377Y11887200D02*
X13651810D01*
X13753377Y11988767D01*
Y12014159D01*
X13727985Y12039551D01*
X13677202D01*
X13651810Y12014159D01*
X13804161Y11887200D02*
X13854944D01*
X13829553D01*
Y12039551D01*
X13804161Y12014159D01*
X11493500Y12382451D02*
Y12230100D01*
X11569675D01*
X11595067Y12255492D01*
Y12280883D01*
X11569675Y12306275D01*
X11493500D01*
X11569675D01*
X11595067Y12331667D01*
Y12357059D01*
X11569675Y12382451D01*
X11493500D01*
X11747418D02*
X11645851D01*
Y12230100D01*
X11747418D01*
X11645851Y12306275D02*
X11696634D01*
X11798201Y12382451D02*
Y12230100D01*
Y12306275D01*
X11899769D01*
Y12382451D01*
Y12230100D01*
X11950552Y12382451D02*
X12001336D01*
X11975944D01*
Y12230100D01*
X11950552D01*
X12001336D01*
X12077511Y12382451D02*
Y12280883D01*
X12128295Y12230100D01*
X12179078Y12280883D01*
Y12382451D01*
X12331429D02*
X12229862D01*
Y12230100D01*
X12331429D01*
X12229862Y12306275D02*
X12280645D01*
X12534563Y12230100D02*
Y12382451D01*
X12585347Y12331667D01*
X12636130Y12382451D01*
Y12230100D01*
X12763089Y12382451D02*
X12712306D01*
X12686914Y12357059D01*
Y12255492D01*
X12712306Y12230100D01*
X12763089D01*
X12788481Y12255492D01*
Y12357059D01*
X12763089Y12382451D01*
X12839265Y12230100D02*
Y12382451D01*
X12940833Y12230100D01*
Y12382451D01*
X12991615D02*
X13042400D01*
X13017007D01*
Y12230100D01*
X12991615D01*
X13042400D01*
X13118575Y12382451D02*
X13220142D01*
X13169357D01*
Y12230100D01*
X13347099Y12382451D02*
X13296317D01*
X13270924Y12357059D01*
Y12255492D01*
X13296317Y12230100D01*
X13347099D01*
X13372491Y12255492D01*
Y12357059D01*
X13347099Y12382451D01*
X13423276Y12230100D02*
Y12382451D01*
X13499451D01*
X13524843Y12357059D01*
Y12306275D01*
X13499451Y12280883D01*
X13423276D01*
X13474059D02*
X13524843Y12230100D01*
X13575626Y12382451D02*
X13626410D01*
X13601018D01*
Y12230100D01*
X13575626D01*
X13626410D01*
X13702585D02*
Y12382451D01*
X13804152Y12230100D01*
Y12382451D01*
X13956503Y12357059D02*
X13931111Y12382451D01*
X13880328D01*
X13854936Y12357059D01*
Y12255492D01*
X13880328Y12230100D01*
X13931111D01*
X13956503Y12255492D01*
Y12306275D01*
X13905719D01*
D13*
X14994780Y5895380D02*
D03*
X14094780D02*
D03*
X15887700Y10985500D02*
D03*
X13187700D02*
D03*
D14*
X14166901Y3390900D02*
D03*
X14617700D02*
D03*
D15*
X13169901Y3479800D02*
D03*
X12915900D02*
D03*
D16*
X7480300Y10248900D02*
D03*
X9486900Y10871200D02*
D03*
D17*
X7480300Y10502900D02*
D03*
Y10756900D02*
D03*
X10464800Y11506200D02*
D03*
X10718800D02*
D03*
X9486900Y10617200D02*
D03*
Y10363200D02*
D03*
D18*
X10210800Y11506200D02*
D03*
D19*
X7561700Y4737100D02*
D03*
D20*
X7815700D02*
D03*
X12133700D02*
D03*
X8069700D02*
D03*
X8323700D02*
D03*
X8577700D02*
D03*
X8831700D02*
D03*
X9085700D02*
D03*
X9339700D02*
D03*
X9593700D02*
D03*
X9847700D02*
D03*
X10101700D02*
D03*
X10355700D02*
D03*
X10609700D02*
D03*
X10863700D02*
D03*
X11117700D02*
D03*
X11371700D02*
D03*
X11625700D02*
D03*
X11879700D02*
D03*
X7561700Y7277100D02*
D03*
X7815700D02*
D03*
X8069700D02*
D03*
X8323700D02*
D03*
X8577700D02*
D03*
X8831700D02*
D03*
X9085700D02*
D03*
X9339700D02*
D03*
X9593700D02*
D03*
X9847700D02*
D03*
X10101700D02*
D03*
X10355700D02*
D03*
X10609700D02*
D03*
X10863700D02*
D03*
X11117700D02*
D03*
X11371700D02*
D03*
X11625700D02*
D03*
X11879700D02*
D03*
X12133700D02*
D03*
D21*
X10172700Y9931400D02*
D03*
X11188700D02*
D03*
%TF.MD5,9f5848e8ca4d5ff90bbfba8f11bac4ff*%
M02*
