%TF.GenerationSoftware,Altium Limited,Altium Designer,21.5.1 (32)*%
G04 Layer_Color=65535*
%FSLAX45Y45*%
%MOMM*%
%TF.SameCoordinates,A9F9FA6B-86CD-4015-A2B0-A9C131C7035F*%
%TF.FilePolarity,Positive*%
%TF.FileFunction,Legend,Top*%
%TF.Part,Single*%
G01*
G75*
%TA.AperFunction,NonConductor*%
%ADD12C,0.25400*%
%ADD31C,0.20000*%
%ADD32C,0.12700*%
D12*
X16055080Y9687600D02*
Y9695220D01*
Y9687600D02*
Y9695220D01*
X12887700Y5585500D02*
Y11285500D01*
X16187700Y5585500D02*
Y11285500D01*
X12887700D02*
X16187700D01*
X12887700Y5585500D02*
X16187700D01*
X14820900Y3112200D02*
Y3632200D01*
X13960899Y3112200D02*
Y3632200D01*
Y3112200D02*
X14820900D01*
X13960899Y3632200D02*
X14820900D01*
X12649300Y3238500D02*
Y3838500D01*
X13449300Y3238500D02*
Y3838500D01*
X12649300D02*
X13449300D01*
X12649300Y3238500D02*
X13449300D01*
X12661900Y4079191D02*
Y3952232D01*
X12687292Y3926840D01*
X12738075D01*
X12763467Y3952232D01*
Y4079191D01*
X12890427Y3926840D02*
Y4079191D01*
X12814252Y4003015D01*
X12915817D01*
X12900661Y11526471D02*
Y11399512D01*
X12926051Y11374120D01*
X12976836D01*
X13002226Y11399512D01*
Y11526471D01*
X13053011Y11501079D02*
X13078403Y11526471D01*
X13129185D01*
X13154578Y11501079D01*
Y11475687D01*
X13129185Y11450295D01*
X13103793D01*
X13129185D01*
X13154578Y11424903D01*
Y11399512D01*
X13129185Y11374120D01*
X13078403D01*
X13053011Y11399512D01*
X13972540Y3873451D02*
Y3746492D01*
X13997932Y3721100D01*
X14048715D01*
X14074107Y3746492D01*
Y3873451D01*
X14124892Y3721100D02*
X14175674D01*
X14150282D01*
Y3873451D01*
X14124892Y3848059D01*
X6532880Y7658051D02*
Y7531092D01*
X6558272Y7505700D01*
X6609055D01*
X6634447Y7531092D01*
Y7658051D01*
X6786798Y7505700D02*
X6685231D01*
X6786798Y7607267D01*
Y7632659D01*
X6761406Y7658051D01*
X6710623D01*
X6685231Y7632659D01*
X10116820Y10119360D02*
Y10271711D01*
X10192995D01*
X10218387Y10246319D01*
Y10195535D01*
X10192995Y10170143D01*
X10116820D01*
X10167603D02*
X10218387Y10119360D01*
X10269171D02*
X10319954D01*
X10294563D01*
Y10271711D01*
X10269171Y10246319D01*
X9375140Y11084560D02*
Y11236911D01*
X9451315D01*
X9476707Y11211519D01*
Y11160735D01*
X9451315Y11135343D01*
X9375140D01*
X9629058Y11084560D02*
X9527491D01*
X9629058Y11186127D01*
Y11211519D01*
X9603666Y11236911D01*
X9552883D01*
X9527491Y11211519D01*
X7368540Y10970260D02*
Y11122611D01*
X7444715D01*
X7470107Y11097219D01*
Y11046435D01*
X7444715Y11021043D01*
X7368540D01*
X7520891Y10970260D02*
X7571674D01*
X7546283D01*
Y11122611D01*
X7520891Y11097219D01*
X10099040Y11719560D02*
Y11871911D01*
X10175215D01*
X10200607Y11846519D01*
Y11795735D01*
X10175215Y11770343D01*
X10099040D01*
X10251391Y11846519D02*
X10276783Y11871911D01*
X10327566D01*
X10352958Y11846519D01*
Y11821127D01*
X10327566Y11795735D01*
X10302174D01*
X10327566D01*
X10352958Y11770343D01*
Y11744952D01*
X10327566Y11719560D01*
X10276783D01*
X10251391Y11744952D01*
D31*
X7607300Y10121900D02*
Y10883900D01*
X7353300D02*
X7607300D01*
X7353300Y10121900D02*
Y10883900D01*
Y10121900D02*
X7607300D01*
X10083800Y11379200D02*
X10845800D01*
Y11633200D01*
X10083800D02*
X10845800D01*
X10083800Y11379200D02*
Y11633200D01*
X9359900Y10236200D02*
Y10998200D01*
Y10236200D02*
X9613900D01*
Y10998200D01*
X9359900D02*
X9613900D01*
X10375900Y9829800D02*
Y10033000D01*
X10985500D01*
Y9829800D02*
Y10033000D01*
X10375900Y9829800D02*
X10985500D01*
X10274300Y9931400D02*
X10375900D01*
X10985500D02*
X11087100D01*
D32*
X6822700Y4612100D02*
X12262700D01*
X6822700D02*
Y7402100D01*
X12262700D01*
Y4612100D02*
Y7402100D01*
%TF.MD5,c9d52cdedcf690af0879e1ba94074612*%
M02*
